M48
; DRILL file {KiCad 8.0.6} date 2025-12-03T01:39:06-0600
; FORMAT={-:-/ absolute / metric / decimal}
; #@! TF.CreationDate,2025-12-03T01:39:06-06:00
; #@! TF.GenerationSoftware,Kicad,Pcbnew,8.0.6
; #@! TF.FileFunction,Plated,1,4,PTH
FMAT,2
METRIC
; #@! TA.AperFunction,Plated,PTH,ViaDrill
T1C0.300
; #@! TA.AperFunction,Plated,PTH,ComponentDrill
T2C0.800
; #@! TA.AperFunction,Plated,PTH,ComponentDrill
T3C1.000
; #@! TA.AperFunction,Plated,PTH,ComponentDrill
T4C1.020
; #@! TA.AperFunction,Plated,PTH,ComponentDrill
T5C1.200
; #@! TA.AperFunction,Plated,PTH,ComponentDrill
T6C1.330
; #@! TA.AperFunction,Plated,PTH,ComponentDrill
T7C1.520
%
G90
G05
T1
X108.765Y-103.045
X109.115Y-92.415
X114.395Y-97.265
X119.295Y-90.015
X125.345Y-90.045
X126.105Y-94.665
X131.165Y-94.595
X132.025Y-109.575
X132.625Y-92.185
X138.965Y-96.545
X140.185Y-103.565
X142.435Y-96.605
X163.84Y-96.66
T2
X115.745Y-86.125
X118.285Y-86.125
X120.825Y-86.125
X127.825Y-86.125
X128.335Y-92.175
X130.365Y-86.125
X132.905Y-86.125
X135.955Y-92.175
X140.155Y-86.415
X140.155Y-94.035
T3
X111.625Y-108.145
X113.905Y-108.145
X116.185Y-108.145
X145.7Y-95.105
X145.7Y-97.645
X156.715Y-98.62
X156.715Y-101.16
T4
X109.25Y-84.85
X109.28Y-89.91
X134.98Y-96.51
X135.13Y-101.3
X171.25Y-108.01
X175.51Y-108.11
T5
X114.125Y-112.515
X131.435Y-112.365
T6
X128.887Y-107.555
X131.427Y-107.555
X133.968Y-107.555
T7
X102.185Y-93.815
X102.185Y-98.895
X189.64Y-97.75
X189.64Y-102.83
M30
