M48
; DRILL file {KiCad 8.0.6} date 2025-12-03T01:39:06-0600
; FORMAT={-:-/ absolute / metric / decimal}
; #@! TF.CreationDate,2025-12-03T01:39:06-06:00
; #@! TF.GenerationSoftware,Kicad,Pcbnew,8.0.6
; #@! TF.FileFunction,NonPlated,1,4,NPTH
FMAT,2
METRIC
; #@! TA.AperFunction,NonPlated,NPTH,ComponentDrill
T1C0.500
; #@! TA.AperFunction,NonPlated,NPTH,ComponentDrill
T2C3.200
%
G90
G05
T1
X149.93Y-94.88
X149.93Y-95.68
X149.93Y-96.48
X149.93Y-105.57
X149.93Y-106.37
X149.93Y-107.17
X152.13Y-94.88
X152.13Y-95.68
X152.13Y-96.48
X152.13Y-105.57
X152.13Y-106.37
X152.13Y-107.17
T2
X100.305Y-82.805
X100.305Y-116.205
X145.465Y-116.205
X145.535Y-82.805
X156.95Y-89.88
X156.95Y-110.97
X190.52Y-89.87
X190.52Y-110.97
M30
