M48
INCH
T1C0.0197
T2C0.1260
%
G90
G05
T1
X5.9028Y-3.7354
X5.9028Y-3.7669
X5.9028Y-3.7984
X5.9028Y-4.1563
X5.9028Y-4.1878
X5.9028Y-4.2193
X5.9894Y-3.7354
X5.9894Y-3.7669
X5.9894Y-3.7984
X5.9894Y-4.1563
X5.9894Y-4.1878
X5.9894Y-4.2193
T2
X3.949Y-3.26
X3.949Y-4.575
X5.727Y-4.575
X5.7297Y-3.26
X6.1791Y-3.5386
X6.1791Y-4.3689
X7.5008Y-3.5382
X7.5008Y-4.3689
M30
