%TF.GenerationSoftware,KiCad,Pcbnew,8.0.6*%
%TF.CreationDate,2025-11-14T22:02:28-06:00*%
%TF.ProjectId,WirelessChargerPCB,57697265-6c65-4737-9343-686172676572,rev?*%
%TF.SameCoordinates,Original*%
%TF.FileFunction,Soldermask,Top*%
%TF.FilePolarity,Negative*%
%FSLAX46Y46*%
G04 Gerber Fmt 4.6, Leading zero omitted, Abs format (unit mm)*
G04 Created by KiCad (PCBNEW 8.0.6) date 2025-11-14 22:02:28*
%MOMM*%
%LPD*%
G01*
G04 APERTURE LIST*
G04 Aperture macros list*
%AMRoundRect*
0 Rectangle with rounded corners*
0 $1 Rounding radius*
0 $2 $3 $4 $5 $6 $7 $8 $9 X,Y pos of 4 corners*
0 Add a 4 corners polygon primitive as box body*
4,1,4,$2,$3,$4,$5,$6,$7,$8,$9,$2,$3,0*
0 Add four circle primitives for the rounded corners*
1,1,$1+$1,$2,$3*
1,1,$1+$1,$4,$5*
1,1,$1+$1,$6,$7*
1,1,$1+$1,$8,$9*
0 Add four rect primitives between the rounded corners*
20,1,$1+$1,$2,$3,$4,$5,0*
20,1,$1+$1,$4,$5,$6,$7,0*
20,1,$1+$1,$6,$7,$8,$9,0*
20,1,$1+$1,$8,$9,$2,$3,0*%
G04 Aperture macros list end*
%ADD10C,0.500000*%
%ADD11C,3.200000*%
%ADD12R,3.000000X3.000000*%
%ADD13C,3.000000*%
%ADD14R,1.700000X1.700000*%
%ADD15O,1.700000X1.700000*%
%ADD16RoundRect,0.250000X-0.312500X-0.625000X0.312500X-0.625000X0.312500X0.625000X-0.312500X0.625000X0*%
%ADD17RoundRect,0.250000X-0.650000X0.325000X-0.650000X-0.325000X0.650000X-0.325000X0.650000X0.325000X0*%
%ADD18O,1.600000X1.600000*%
%ADD19R,1.600000X1.600000*%
%ADD20RoundRect,0.250000X1.000000X0.650000X-1.000000X0.650000X-1.000000X-0.650000X1.000000X-0.650000X0*%
%ADD21C,1.800000*%
%ADD22RoundRect,0.150000X-0.825000X-0.150000X0.825000X-0.150000X0.825000X0.150000X-0.825000X0.150000X0*%
%ADD23C,2.199000*%
%ADD24RoundRect,0.102000X0.997500X0.997500X-0.997500X0.997500X-0.997500X-0.997500X0.997500X-0.997500X0*%
%ADD25RoundRect,0.250000X0.325000X0.650000X-0.325000X0.650000X-0.325000X-0.650000X0.325000X-0.650000X0*%
%ADD26C,1.440000*%
%ADD27RoundRect,0.250000X-0.325000X-0.650000X0.325000X-0.650000X0.325000X0.650000X-0.325000X0.650000X0*%
%ADD28O,1.710000X1.800000*%
%ADD29R,1.710000X1.800000*%
%ADD30RoundRect,0.250000X0.650000X-0.325000X0.650000X0.325000X-0.650000X0.325000X-0.650000X-0.325000X0*%
G04 APERTURE END LIST*
D10*
%TO.C,mouse-bite-2.54mm-slot*%
X149930000Y-107170000D03*
X152130000Y-107170000D03*
X149930000Y-106370000D03*
X152130000Y-106370000D03*
X149930000Y-105570000D03*
X152130000Y-105570000D03*
%TD*%
%TO.C,mouse-bite-2.54mm-slot*%
X149930000Y-95680000D03*
X152130000Y-95680000D03*
X149930000Y-94880000D03*
X149930000Y-96480000D03*
X152130000Y-96480000D03*
X152130000Y-94880000D03*
%TD*%
D11*
%TO.C,REF\u002A\u002A*%
X145535000Y-82805000D03*
%TD*%
D12*
%TO.C,J2*%
X189640000Y-102830000D03*
D13*
X189640000Y-97750000D03*
%TD*%
D14*
%TO.C,TP4*%
X175570000Y-108070000D03*
%TD*%
%TO.C,TP2*%
X109245000Y-89925000D03*
%TD*%
D13*
%TO.C,J1*%
X102185000Y-98895000D03*
D12*
X102185000Y-93815000D03*
%TD*%
D15*
%TO.C,L1*%
X145700000Y-97645000D03*
D14*
X145700000Y-95105000D03*
%TD*%
%TO.C,TP5*%
X135045000Y-101245000D03*
%TD*%
D16*
%TO.C,R3*%
X131095000Y-100965000D03*
X128170000Y-100965000D03*
%TD*%
D17*
%TO.C,C7*%
X161600000Y-98265000D03*
X161600000Y-101215000D03*
%TD*%
D18*
%TO.C,D2*%
X140155000Y-86415000D03*
D19*
X140155000Y-94035000D03*
%TD*%
D11*
%TO.C,REF\u002A\u002A*%
X145465000Y-116205000D03*
%TD*%
D17*
%TO.C,C2*%
X109115000Y-96765000D03*
X109115000Y-93815000D03*
%TD*%
D11*
%TO.C,REF\u002A\u002A*%
X190520000Y-110970000D03*
%TD*%
D20*
%TO.C,D5*%
X170122500Y-102420000D03*
X166122500Y-102420000D03*
%TD*%
D21*
%TO.C,REF\u002A\u002A*%
X114125000Y-112515000D03*
%TD*%
D22*
%TO.C,U1*%
X119315000Y-91765000D03*
X119315000Y-93035000D03*
X119315000Y-94305000D03*
X119315000Y-95575000D03*
X114365000Y-95575000D03*
X114365000Y-94305000D03*
X114365000Y-93035000D03*
X114365000Y-91765000D03*
%TD*%
D14*
%TO.C,TP3*%
X135115000Y-96685000D03*
%TD*%
D23*
%TO.C,Q2*%
X128887500Y-107555000D03*
X131427500Y-107555000D03*
D24*
X133967500Y-107555000D03*
%TD*%
D16*
%TO.C,R1*%
X118372500Y-100965000D03*
X115447500Y-100965000D03*
%TD*%
D11*
%TO.C,REF\u002A\u002A*%
X100305000Y-116205000D03*
%TD*%
%TO.C,REF\u002A\u002A*%
X100305000Y-82805000D03*
%TD*%
%TO.C,REF\u002A\u002A*%
X156950000Y-89880000D03*
%TD*%
D21*
%TO.C,REF\u002A\u002A*%
X131435000Y-112365000D03*
%TD*%
D20*
%TO.C,D3*%
X170122500Y-97100000D03*
X166122500Y-97100000D03*
%TD*%
D14*
%TO.C,L2*%
X156715000Y-101160000D03*
D15*
X156715000Y-98620000D03*
%TD*%
D25*
%TO.C,C5*%
X122382500Y-96675000D03*
X125332500Y-96675000D03*
%TD*%
D20*
%TO.C,D4*%
X178350000Y-97100000D03*
X174350000Y-97100000D03*
%TD*%
D25*
%TO.C,C4*%
X122395000Y-100995000D03*
X125345000Y-100995000D03*
%TD*%
D14*
%TO.C,TP6*%
X171290000Y-108070000D03*
%TD*%
D26*
%TO.C,RV2*%
X127825000Y-86125000D03*
X130365000Y-86125000D03*
X132905000Y-86125000D03*
%TD*%
%TO.C,RV1*%
X115745000Y-86125000D03*
X118285000Y-86125000D03*
X120825000Y-86125000D03*
%TD*%
D20*
%TO.C,D6*%
X178350000Y-102420000D03*
X174350000Y-102420000D03*
%TD*%
D17*
%TO.C,C6*%
X140185000Y-101605000D03*
X140185000Y-98655000D03*
%TD*%
D11*
%TO.C,REF\u002A\u002A*%
X156950000Y-110970000D03*
%TD*%
D14*
%TO.C,TP1*%
X109205000Y-84895000D03*
%TD*%
D27*
%TO.C,C3*%
X125340000Y-92125000D03*
X122390000Y-92125000D03*
%TD*%
D18*
%TO.C,D1*%
X128335000Y-92175000D03*
D19*
X135955000Y-92175000D03*
%TD*%
D11*
%TO.C,REF\u002A\u002A*%
X190520000Y-89870000D03*
%TD*%
D28*
%TO.C,Q1*%
X111625000Y-108145000D03*
X113905000Y-108145000D03*
D29*
X116185000Y-108145000D03*
%TD*%
D16*
%TO.C,R2*%
X131100000Y-96665000D03*
X128175000Y-96665000D03*
%TD*%
D30*
%TO.C,C8*%
X183100000Y-101315000D03*
X183100000Y-98365000D03*
%TD*%
D27*
%TO.C,C1*%
X111685000Y-100995000D03*
X108735000Y-100995000D03*
%TD*%
M02*
