G04 #@! TF.GenerationSoftware,KiCad,Pcbnew,8.0.6*
G04 #@! TF.CreationDate,2025-12-03T01:38:51-06:00*
G04 #@! TF.ProjectId,WirelessChargerPCB,57697265-6c65-4737-9343-686172676572,rev?*
G04 #@! TF.SameCoordinates,Original*
G04 #@! TF.FileFunction,Profile,NP*
%FSLAX46Y46*%
G04 Gerber Fmt 4.6, Leading zero omitted, Abs format (unit mm)*
G04 Created by KiCad (PCBNEW 8.0.6) date 2025-12-03 01:38:51*
%MOMM*%
%LPD*%
G01*
G04 APERTURE LIST*
G04 #@! TA.AperFunction,Profile*
%ADD10C,0.050000*%
G04 #@! TD*
G04 APERTURE END LIST*
D10*
X155300000Y-85390000D02*
X192300000Y-85390000D01*
X149760000Y-98010000D02*
G75*
G02*
X152300000Y-98010000I1270000J0D01*
G01*
X95765000Y-78485000D02*
X149765000Y-78525000D01*
X152300000Y-88390000D02*
G75*
G02*
X155300000Y-85390000I3000000J0D01*
G01*
X192300000Y-85390000D02*
G75*
G02*
X195300000Y-88390000I0J-3000000D01*
G01*
X149755000Y-120495000D02*
X149760000Y-108700000D01*
X155300000Y-115390000D02*
G75*
G02*
X152300000Y-112390000I0J3000000D01*
G01*
X192300000Y-115390000D02*
X155300000Y-115390000D01*
X95755000Y-120455000D02*
X149755000Y-120495000D01*
X152300000Y-104040000D02*
G75*
G02*
X149760000Y-104040000I-1270000J0D01*
G01*
X149760000Y-108700000D02*
G75*
G02*
X152300000Y-108700000I1270000J0D01*
G01*
X152300000Y-112390000D02*
X152300000Y-108700000D01*
X95755000Y-120455000D02*
X95765000Y-78485000D01*
X149765000Y-78525000D02*
X149760000Y-93350000D01*
X195300000Y-112390000D02*
G75*
G02*
X192300000Y-115390000I-3000000J0D01*
G01*
X195300000Y-88390000D02*
X195300000Y-112390000D01*
X152300000Y-104040000D02*
X152300000Y-98010000D01*
X152300000Y-93350000D02*
G75*
G02*
X149760000Y-93350000I-1270000J0D01*
G01*
X149760000Y-98010000D02*
X149760000Y-104040000D01*
X152300000Y-93350000D02*
X152300000Y-88390000D01*
M02*
