M48
INCH
T1C0.0118
T2C0.0315
T3C0.0394
T4C0.0472
T5C0.0524
T6C0.0598
%
G90
G05
T1
X4.2821Y-4.0569
X4.2959Y-3.6384
X4.5037Y-3.8293
X4.6967Y-3.5439
X4.9348Y-3.5451
X4.9648Y-3.727
X5.164Y-3.7242
X5.1978Y-4.314
X5.2215Y-3.6293
X5.4711Y-3.801
X5.5191Y-4.0774
X5.6077Y-3.8033
X6.4504Y-3.8055
T2
X4.5569Y-3.3907
X4.6569Y-3.3907
X4.7569Y-3.3907
X5.0325Y-3.3907
X5.0526Y-3.6289
X5.1325Y-3.3907
X5.2325Y-3.3907
X5.3526Y-3.6289
X5.5179Y-3.4022
X5.5179Y-3.7022
T3
X4.2994Y-3.3423
X4.301Y-3.5404
X4.3947Y-4.2577
X4.4844Y-4.2577
X4.5742Y-4.2577
X5.3167Y-3.986
X5.3195Y-3.8065
X5.7362Y-3.7443
X5.7362Y-3.8443
X6.1699Y-3.8827
X6.1699Y-3.9827
X6.7437Y-4.2547
X6.9122Y-4.2547
T4
X4.4931Y-4.4297
X5.1746Y-4.4238
T5
X5.0743Y-4.2344
X5.1743Y-4.2344
X5.2743Y-4.2344
T6
X4.023Y-3.6935
X4.023Y-3.8935
X7.4661Y-3.8484
X7.4661Y-4.0484
M30
