%TF.GenerationSoftware,KiCad,Pcbnew,8.0.6*%
%TF.CreationDate,2025-11-14T22:02:28-06:00*%
%TF.ProjectId,WirelessChargerPCB,57697265-6c65-4737-9343-686172676572,rev?*%
%TF.SameCoordinates,Original*%
%TF.FileFunction,Soldermask,Bot*%
%TF.FilePolarity,Negative*%
%FSLAX46Y46*%
G04 Gerber Fmt 4.6, Leading zero omitted, Abs format (unit mm)*
G04 Created by KiCad (PCBNEW 8.0.6) date 2025-11-14 22:02:28*
%MOMM*%
%LPD*%
G01*
G04 APERTURE LIST*
G04 Aperture macros list*
%AMRoundRect*
0 Rectangle with rounded corners*
0 $1 Rounding radius*
0 $2 $3 $4 $5 $6 $7 $8 $9 X,Y pos of 4 corners*
0 Add a 4 corners polygon primitive as box body*
4,1,4,$2,$3,$4,$5,$6,$7,$8,$9,$2,$3,0*
0 Add four circle primitives for the rounded corners*
1,1,$1+$1,$2,$3*
1,1,$1+$1,$4,$5*
1,1,$1+$1,$6,$7*
1,1,$1+$1,$8,$9*
0 Add four rect primitives between the rounded corners*
20,1,$1+$1,$2,$3,$4,$5,0*
20,1,$1+$1,$4,$5,$6,$7,0*
20,1,$1+$1,$6,$7,$8,$9,0*
20,1,$1+$1,$8,$9,$2,$3,0*%
G04 Aperture macros list end*
%ADD10C,0.500000*%
%ADD11C,3.200000*%
%ADD12R,3.000000X3.000000*%
%ADD13C,3.000000*%
%ADD14R,1.700000X1.700000*%
%ADD15O,1.700000X1.700000*%
%ADD16O,1.600000X1.600000*%
%ADD17R,1.600000X1.600000*%
%ADD18C,1.800000*%
%ADD19C,2.199000*%
%ADD20RoundRect,0.102000X0.997500X0.997500X-0.997500X0.997500X-0.997500X-0.997500X0.997500X-0.997500X0*%
%ADD21C,1.440000*%
%ADD22O,1.710000X1.800000*%
%ADD23R,1.710000X1.800000*%
G04 APERTURE END LIST*
D10*
%TO.C,mouse-bite-2.54mm-slot*%
X149930000Y-107170000D03*
X152130000Y-107170000D03*
X149930000Y-106370000D03*
X152130000Y-106370000D03*
X149930000Y-105570000D03*
X152130000Y-105570000D03*
%TD*%
%TO.C,mouse-bite-2.54mm-slot*%
X149930000Y-95680000D03*
X152130000Y-95680000D03*
X149930000Y-94880000D03*
X149930000Y-96480000D03*
X152130000Y-96480000D03*
X152130000Y-94880000D03*
%TD*%
D11*
%TO.C,REF\u002A\u002A*%
X145535000Y-82805000D03*
%TD*%
D12*
%TO.C,J2*%
X189640000Y-102830000D03*
D13*
X189640000Y-97750000D03*
%TD*%
D14*
%TO.C,TP4*%
X175570000Y-108070000D03*
%TD*%
%TO.C,TP2*%
X109245000Y-89925000D03*
%TD*%
D13*
%TO.C,J1*%
X102185000Y-98895000D03*
D12*
X102185000Y-93815000D03*
%TD*%
D15*
%TO.C,L1*%
X145700000Y-97645000D03*
D14*
X145700000Y-95105000D03*
%TD*%
%TO.C,TP5*%
X135045000Y-101245000D03*
%TD*%
D16*
%TO.C,D2*%
X140155000Y-86415000D03*
D17*
X140155000Y-94035000D03*
%TD*%
D11*
%TO.C,REF\u002A\u002A*%
X145465000Y-116205000D03*
%TD*%
%TO.C,REF\u002A\u002A*%
X190520000Y-110970000D03*
%TD*%
D18*
%TO.C,REF\u002A\u002A*%
X114125000Y-112515000D03*
%TD*%
D14*
%TO.C,TP3*%
X135115000Y-96685000D03*
%TD*%
D19*
%TO.C,Q2*%
X128887500Y-107555000D03*
X131427500Y-107555000D03*
D20*
X133967500Y-107555000D03*
%TD*%
D11*
%TO.C,REF\u002A\u002A*%
X100305000Y-116205000D03*
%TD*%
%TO.C,REF\u002A\u002A*%
X100305000Y-82805000D03*
%TD*%
%TO.C,REF\u002A\u002A*%
X156950000Y-89880000D03*
%TD*%
D18*
%TO.C,REF\u002A\u002A*%
X131435000Y-112365000D03*
%TD*%
D14*
%TO.C,L2*%
X156715000Y-101160000D03*
D15*
X156715000Y-98620000D03*
%TD*%
D14*
%TO.C,TP6*%
X171290000Y-108070000D03*
%TD*%
D21*
%TO.C,RV2*%
X127825000Y-86125000D03*
X130365000Y-86125000D03*
X132905000Y-86125000D03*
%TD*%
%TO.C,RV1*%
X115745000Y-86125000D03*
X118285000Y-86125000D03*
X120825000Y-86125000D03*
%TD*%
D11*
%TO.C,REF\u002A\u002A*%
X156950000Y-110970000D03*
%TD*%
D14*
%TO.C,TP1*%
X109205000Y-84895000D03*
%TD*%
D16*
%TO.C,D1*%
X128335000Y-92175000D03*
D17*
X135955000Y-92175000D03*
%TD*%
D11*
%TO.C,REF\u002A\u002A*%
X190520000Y-89870000D03*
%TD*%
D22*
%TO.C,Q1*%
X111625000Y-108145000D03*
X113905000Y-108145000D03*
D23*
X116185000Y-108145000D03*
%TD*%
M02*
