G04 #@! TF.GenerationSoftware,KiCad,Pcbnew,8.0.6*
G04 #@! TF.CreationDate,2025-12-03T01:38:51-06:00*
G04 #@! TF.ProjectId,WirelessChargerPCB,57697265-6c65-4737-9343-686172676572,rev?*
G04 #@! TF.SameCoordinates,Original*
G04 #@! TF.FileFunction,Soldermask,Top*
G04 #@! TF.FilePolarity,Negative*
%FSLAX46Y46*%
G04 Gerber Fmt 4.6, Leading zero omitted, Abs format (unit mm)*
G04 Created by KiCad (PCBNEW 8.0.6) date 2025-12-03 01:38:51*
%MOMM*%
%LPD*%
G01*
G04 APERTURE LIST*
G04 Aperture macros list*
%AMRoundRect*
0 Rectangle with rounded corners*
0 $1 Rounding radius*
0 $2 $3 $4 $5 $6 $7 $8 $9 X,Y pos of 4 corners*
0 Add a 4 corners polygon primitive as box body*
4,1,4,$2,$3,$4,$5,$6,$7,$8,$9,$2,$3,0*
0 Add four circle primitives for the rounded corners*
1,1,$1+$1,$2,$3*
1,1,$1+$1,$4,$5*
1,1,$1+$1,$6,$7*
1,1,$1+$1,$8,$9*
0 Add four rect primitives between the rounded corners*
20,1,$1+$1,$2,$3,$4,$5,0*
20,1,$1+$1,$4,$5,$6,$7,0*
20,1,$1+$1,$6,$7,$8,$9,0*
20,1,$1+$1,$8,$9,$2,$3,0*%
G04 Aperture macros list end*
%ADD10C,3.200000*%
%ADD11R,3.000000X3.000000*%
%ADD12C,3.000000*%
%ADD13R,1.700000X1.700000*%
%ADD14O,1.700000X1.700000*%
%ADD15RoundRect,0.250000X-0.312500X-0.625000X0.312500X-0.625000X0.312500X0.625000X-0.312500X0.625000X0*%
%ADD16RoundRect,0.250000X-0.650000X0.325000X-0.650000X-0.325000X0.650000X-0.325000X0.650000X0.325000X0*%
%ADD17R,1.600000X1.600000*%
%ADD18O,1.600000X1.600000*%
%ADD19RoundRect,0.250000X1.000000X0.650000X-1.000000X0.650000X-1.000000X-0.650000X1.000000X-0.650000X0*%
%ADD20C,1.800000*%
%ADD21RoundRect,0.150000X-0.825000X-0.150000X0.825000X-0.150000X0.825000X0.150000X-0.825000X0.150000X0*%
%ADD22C,1.734000*%
%ADD23RoundRect,0.102000X0.997500X0.997500X-0.997500X0.997500X-0.997500X-0.997500X0.997500X-0.997500X0*%
%ADD24C,2.199000*%
%ADD25RoundRect,0.250000X0.325000X0.650000X-0.325000X0.650000X-0.325000X-0.650000X0.325000X-0.650000X0*%
%ADD26C,1.440000*%
%ADD27RoundRect,0.250000X-0.325000X-0.650000X0.325000X-0.650000X0.325000X0.650000X-0.325000X0.650000X0*%
%ADD28C,0.500000*%
%ADD29R,1.710000X1.800000*%
%ADD30O,1.710000X1.800000*%
%ADD31RoundRect,0.250000X0.650000X-0.325000X0.650000X0.325000X-0.650000X0.325000X-0.650000X-0.325000X0*%
G04 APERTURE END LIST*
D10*
X145535000Y-82805000D03*
D11*
X189640000Y-102830000D03*
D12*
X189640000Y-97750000D03*
D11*
X102185000Y-93815000D03*
D12*
X102185000Y-98895000D03*
D13*
X145700000Y-95105000D03*
D14*
X145700000Y-97645000D03*
D15*
X128170000Y-100965000D03*
X131095000Y-100965000D03*
D16*
X161600000Y-98265000D03*
X161600000Y-101215000D03*
D17*
X140155000Y-94035000D03*
D18*
X140155000Y-86415000D03*
D10*
X145465000Y-116205000D03*
D16*
X109115000Y-93815000D03*
X109115000Y-96765000D03*
D10*
X190520000Y-110970000D03*
D19*
X170122500Y-102420000D03*
X166122500Y-102420000D03*
D20*
X114125000Y-112515000D03*
D21*
X114365000Y-91765000D03*
X114365000Y-93035000D03*
X114365000Y-94305000D03*
X114365000Y-95575000D03*
X119315000Y-95575000D03*
X119315000Y-94305000D03*
X119315000Y-93035000D03*
X119315000Y-91765000D03*
D22*
X135130000Y-101300000D03*
D23*
X133967500Y-107555000D03*
D24*
X131427500Y-107555000D03*
X128887500Y-107555000D03*
D22*
X171250000Y-108010000D03*
D15*
X115447500Y-100965000D03*
X118372500Y-100965000D03*
D10*
X100305000Y-116205000D03*
X100305000Y-82805000D03*
X156950000Y-89880000D03*
D20*
X131435000Y-112365000D03*
D19*
X170122500Y-97100000D03*
X166122500Y-97100000D03*
D13*
X156715000Y-101160000D03*
D14*
X156715000Y-98620000D03*
D25*
X125332500Y-96675000D03*
X122382500Y-96675000D03*
D19*
X178350000Y-97100000D03*
X174350000Y-97100000D03*
D25*
X125345000Y-100995000D03*
X122395000Y-100995000D03*
D22*
X109280000Y-89910000D03*
D26*
X132905000Y-86125000D03*
X130365000Y-86125000D03*
X127825000Y-86125000D03*
X120825000Y-86125000D03*
X118285000Y-86125000D03*
X115745000Y-86125000D03*
D19*
X178350000Y-102420000D03*
X174350000Y-102420000D03*
D16*
X140185000Y-98655000D03*
X140185000Y-101605000D03*
D10*
X156950000Y-110970000D03*
D27*
X122390000Y-92125000D03*
X125340000Y-92125000D03*
D17*
X135955000Y-92175000D03*
D18*
X128335000Y-92175000D03*
D10*
X190520000Y-89870000D03*
D22*
X134980000Y-96510000D03*
D28*
X149930000Y-107170000D03*
X152130000Y-107170000D03*
X149930000Y-106370000D03*
X152130000Y-106370000D03*
X149930000Y-105570000D03*
X152130000Y-105570000D03*
D29*
X116185000Y-108145000D03*
D30*
X113905000Y-108145000D03*
X111625000Y-108145000D03*
D28*
X149930000Y-96480000D03*
X152130000Y-96480000D03*
X149930000Y-95680000D03*
X152130000Y-95680000D03*
X149930000Y-94880000D03*
X152130000Y-94880000D03*
D22*
X109250000Y-84850000D03*
D15*
X128175000Y-96665000D03*
X131100000Y-96665000D03*
D31*
X183100000Y-101315000D03*
X183100000Y-98365000D03*
D22*
X175510000Y-108110000D03*
D27*
X108735000Y-100995000D03*
X111685000Y-100995000D03*
M02*
